<?xml version="1.0" encoding="utf-8"?>
<!-- Generator: Adobe Illustrator 24.1.2, SVG Export Plug-In . SVG Version: 6.00 Build 0)  -->
<svg version="1.1" id="Layer_1" xmlns="http://www.w3.org/2000/svg" xmlns:xlink="http://www.w3.org/1999/xlink" x="0px" y="0px"
	 viewBox="0 0 226.77 141.73" style="enable-background:new 0 0 226.77 141.73;" xml:space="preserve">
<style type="text/css">
	.st0{fill:#FFFFFF;}
	.st1{fill:#FDD305;}
</style>
<path class="st0" d="M28.39,52.05c3.46,0,6.36,1.15,8.72,3.51s3.56,5.16,3.56,8.52c0,3.36-1.2,6.16-3.56,8.52
	c-2.35,2.36-5.26,3.51-8.72,3.51h-5.26v11.02h-8.02V52.05H28.39z M28.39,68.59c2.46,0,4.26-1.95,4.26-4.51
	c0-2.56-1.8-4.51-4.26-4.51h-5.26v9.02H28.39z"/>
<path class="st0" d="M50.44,66.53c0.95-3.21,4.11-4.96,7.52-4.96v8.52c-1.85-0.3-3.56,0-5.16,0.95c-1.55,0.9-2.36,2.5-2.36,4.76
	v11.33h-7.52V62.07h7.52V66.53z"/>
<path class="st0" d="M75.49,87.83c-3.71,0-6.86-1.25-9.42-3.81c-2.56-2.56-3.86-5.71-3.86-9.42s1.3-6.82,3.86-9.37
	c2.56-2.56,5.71-3.86,9.42-3.86c3.71,0,6.87,1.3,9.42,3.86c2.56,2.56,3.86,5.66,3.86,9.37s-1.3,6.87-3.86,9.42
	S79.2,87.83,75.49,87.83z M75.49,80.51c1.65,0,3.01-0.55,4.11-1.65c1.1-1.1,1.65-2.5,1.65-4.26s-0.55-3.16-1.65-4.26
	c-1.1-1.1-2.46-1.65-4.11-1.65c-1.65,0-3.01,0.55-4.11,1.65s-1.65,2.51-1.65,4.26s0.55,3.16,1.65,4.26
	C72.48,79.96,73.84,80.51,75.49,80.51z"/>
<path class="st0" d="M115.06,65.23c2.35,2.56,3.51,5.66,3.51,9.37s-1.15,6.87-3.51,9.42c-2.36,2.56-5.16,3.81-8.47,3.81
	c-3.21,0-5.71-1-7.47-3.06v12.38h-7.52V62.07h7.52v2.35c1.75-2.05,4.26-3.06,7.47-3.06C109.9,61.37,112.7,62.67,115.06,65.23z
	 M105.09,80.71c1.75,0,3.16-0.55,4.26-1.65c1.15-1.1,1.7-2.61,1.7-4.46c0-1.85-0.55-3.36-1.7-4.46c-1.1-1.1-2.51-1.65-4.26-1.65
	c-1.75,0-3.16,0.55-4.31,1.65c-1.1,1.1-1.65,2.61-1.65,4.46c0,1.85,0.55,3.36,1.65,4.46C101.93,80.16,103.33,80.71,105.09,80.71z"/>
<circle class="st1" cx="126.22" cy="55.38" r="4.5"/>
<rect x="122.49" y="62.07" class="st0" width="7.52" height="25.05"/>
<path class="st0" d="M153.9,62.07h7.32v23.8c0,3.96-1.3,6.92-3.86,8.92c-2.56,2.05-5.71,3.06-9.37,3.06c-5.66,0-9.62-2-11.88-6.06
	l6.41-3.71c1.15,2.1,3.06,3.16,5.71,3.16c3.56,0,5.66-1.9,5.66-5.36v-2.3c-1.75,2.15-4.16,3.26-7.32,3.26
	c-3.51,0-6.46-1.25-8.82-3.71c-2.35-2.51-3.51-5.51-3.51-9.02s1.15-6.51,3.51-8.97c2.36-2.51,5.31-3.76,8.82-3.76
	c3.16,0,5.56,1.1,7.32,3.26V62.07z M147.84,79.91c1.75,0,3.21-0.55,4.36-1.6s1.7-2.46,1.7-4.21s-0.55-3.16-1.7-4.21
	c-1.15-1.05-2.61-1.6-4.36-1.6s-3.21,0.55-4.36,1.6c-1.15,1.05-1.7,2.46-1.7,4.21s0.55,3.16,1.7,4.21S146.09,79.91,147.84,79.91z"/>
<g>
	<path class="st0" d="M207.72,67.26c0.06-2.25,0.49-4.48,1.17-6.64c0.43-1.35,0.7-3.07-0.65-3.27c-1.81-0.27-5.9,2.71-7.41,3.87
		c-3.33-1.84-7.22-2.87-11.38-2.87c-4.15,0-8.04,1.03-11.36,2.86c-1.52-1.17-5.58-4.13-7.39-3.86c-1.35,0.2-1.08,1.93-0.65,3.27
		c0.68,2.14,1.11,4.35,1.17,6.58c-2.5,3.41-3.97,7.63-3.97,12.34c0,12.26,9.94,19.2,22.2,19.2c12.26,0,22.2-6.94,22.2-19.2
		C211.66,74.86,210.2,70.66,207.72,67.26z M199.35,64.87l-0.73,2.91c-5.98-1.51-12.35-1.5-18.3,0.02l-0.74-2.91
		C186,63.26,192.89,63.24,199.35,64.87z M189.72,93.95c-0.09-0.01-0.36-0.02-0.36-0.02s-0.05,0.01-0.14,0.02
		c-10.41,0.06-15.24-5.34-9.54-14.48c2.31-4.1,5.64-6.05,7.73-6.93c1.26-0.53,2.66-0.53,3.92-0.02c2.15,0.87,5.6,2.82,7.93,6.95
		C204.95,88.61,200.13,94.01,189.72,93.95z"/>
	<path class="st0" d="M191.68,79.28c-1.05,0.53-0.86,3.01,0.42,5.56c1.28,2.54,3.16,4.18,4.21,3.65c1.05-0.53,0.86-3.01-0.42-5.56
		C194.61,80.39,192.73,78.76,191.68,79.28z"/>
	
		<ellipse transform="matrix(0.4489 -0.8936 0.8936 0.4489 26.6977 211.0662)" class="st0" cx="184.47" cy="83.89" rx="5.15" ry="2.12"/>
</g>
<circle class="st1" cx="189.49" cy="45.41" r="9.11"/>
</svg>
